<mxfile host="app.diagrams.net" modified="2023-09-25T13:35:47.643Z" agent="Mozilla/5.0 (Windows NT 10.0; Win64; x64) AppleWebKit/537.36 (KHTML, like Gecko) Chrome/116.0.0.0 Safari/537.36" etag="lkZzUO9NPT4iphAqMcQj" version="21.8.2" type="github">
  <diagram name="Страница — 1" id="spXLU3zmGpcaudpSnPfW">
    <mxGraphModel dx="784" dy="427" grid="1" gridSize="10" guides="1" tooltips="1" connect="1" arrows="1" fold="1" page="1" pageScale="1" pageWidth="827" pageHeight="1169" math="0" shadow="0">
      <root>
        <mxCell id="0" />
        <mxCell id="1" parent="0" />
        <mxCell id="MpjXvPP9tkOSTZWV3Y40-1" value="frontent" style="shape=umlLifeline;perimeter=lifelinePerimeter;container=1;collapsible=0;recursiveResize=0;rounded=0;shadow=0;strokeWidth=1;" parent="1" vertex="1">
          <mxGeometry x="134" y="20" width="100" height="310" as="geometry" />
        </mxCell>
        <mxCell id="MpjXvPP9tkOSTZWV3Y40-2" value="" style="points=[];perimeter=orthogonalPerimeter;rounded=0;shadow=0;strokeWidth=1;" parent="MpjXvPP9tkOSTZWV3Y40-1" vertex="1">
          <mxGeometry x="45" y="70" width="10" height="230" as="geometry" />
        </mxCell>
        <mxCell id="MpjXvPP9tkOSTZWV3Y40-3" value="api-proxy" style="shape=umlLifeline;perimeter=lifelinePerimeter;container=1;collapsible=0;recursiveResize=0;rounded=0;shadow=0;strokeWidth=1;" parent="1" vertex="1">
          <mxGeometry x="280" y="20" width="100" height="300" as="geometry" />
        </mxCell>
        <mxCell id="MpjXvPP9tkOSTZWV3Y40-4" value="" style="points=[];perimeter=orthogonalPerimeter;rounded=0;shadow=0;strokeWidth=1;" parent="MpjXvPP9tkOSTZWV3Y40-3" vertex="1">
          <mxGeometry x="45" y="70" width="10" height="190" as="geometry" />
        </mxCell>
        <mxCell id="MpjXvPP9tkOSTZWV3Y40-5" value="workflow-api" style="shape=umlLifeline;perimeter=lifelinePerimeter;container=1;collapsible=0;recursiveResize=0;rounded=0;shadow=0;strokeWidth=1;" parent="1" vertex="1">
          <mxGeometry x="430" y="20" width="100" height="310" as="geometry" />
        </mxCell>
        <mxCell id="MpjXvPP9tkOSTZWV3Y40-6" value="" style="points=[];perimeter=orthogonalPerimeter;rounded=0;shadow=0;strokeWidth=1;" parent="MpjXvPP9tkOSTZWV3Y40-5" vertex="1">
          <mxGeometry x="45" y="70" width="10" height="230" as="geometry" />
        </mxCell>
        <mxCell id="tsUw14M51PnG1STJnrdp-6" value="Возврат данных импорта" style="verticalAlign=bottom;endArrow=open;dashed=1;endSize=8;shadow=0;strokeWidth=1;" edge="1" parent="MpjXvPP9tkOSTZWV3Y40-5">
          <mxGeometry x="-0.0024" relative="1" as="geometry">
            <mxPoint x="-240" y="290" as="targetPoint" />
            <mxPoint x="43.14999999999998" y="290" as="sourcePoint" />
            <mxPoint as="offset" />
          </mxGeometry>
        </mxCell>
        <mxCell id="MpjXvPP9tkOSTZWV3Y40-7" value="document-service" style="shape=umlLifeline;perimeter=lifelinePerimeter;container=1;collapsible=0;recursiveResize=0;rounded=0;shadow=0;strokeWidth=1;" parent="1" vertex="1">
          <mxGeometry x="580" y="20" width="130" height="310" as="geometry" />
        </mxCell>
        <mxCell id="MpjXvPP9tkOSTZWV3Y40-8" value="" style="points=[];perimeter=orthogonalPerimeter;rounded=0;shadow=0;strokeWidth=1;" parent="MpjXvPP9tkOSTZWV3Y40-7" vertex="1">
          <mxGeometry x="60" y="100" width="10" height="90" as="geometry" />
        </mxCell>
        <mxCell id="MpjXvPP9tkOSTZWV3Y40-9" value="" style="points=[];perimeter=orthogonalPerimeter;rounded=0;shadow=0;strokeWidth=1;" parent="MpjXvPP9tkOSTZWV3Y40-7" vertex="1">
          <mxGeometry x="60" y="250" width="10" height="50" as="geometry" />
        </mxCell>
        <mxCell id="MpjXvPP9tkOSTZWV3Y40-10" value="file" style="shape=umlLifeline;perimeter=lifelinePerimeter;container=1;collapsible=0;recursiveResize=0;rounded=0;shadow=0;strokeWidth=1;" parent="1" vertex="1">
          <mxGeometry x="740" y="20" width="100" height="310" as="geometry" />
        </mxCell>
        <mxCell id="MpjXvPP9tkOSTZWV3Y40-11" value="" style="points=[];perimeter=orthogonalPerimeter;rounded=0;shadow=0;strokeWidth=1;" parent="MpjXvPP9tkOSTZWV3Y40-10" vertex="1">
          <mxGeometry x="45" y="125" width="10" height="65" as="geometry" />
        </mxCell>
        <mxCell id="MpjXvPP9tkOSTZWV3Y40-12" value="Вызов действия workflow" style="verticalAlign=bottom;endArrow=block;entryX=0.005;entryY=0.051;shadow=0;strokeWidth=1;entryDx=0;entryDy=0;entryPerimeter=0;exitX=1.04;exitY=0.044;exitDx=0;exitDy=0;exitPerimeter=0;" parent="1" source="MpjXvPP9tkOSTZWV3Y40-2" target="MpjXvPP9tkOSTZWV3Y40-4" edge="1">
          <mxGeometry relative="1" as="geometry">
            <mxPoint x="194" y="100" as="sourcePoint" />
            <mxPoint x="354" y="100.00000000000011" as="targetPoint" />
          </mxGeometry>
        </mxCell>
        <mxCell id="MpjXvPP9tkOSTZWV3Y40-13" value="Проверка &#xa;действия workflow" style="verticalAlign=bottom;endArrow=block;shadow=0;strokeWidth=1;entryX=-0.069;entryY=0.038;entryDx=0;entryDy=0;entryPerimeter=0;exitX=0.972;exitY=0.042;exitDx=0;exitDy=0;exitPerimeter=0;" parent="1" source="MpjXvPP9tkOSTZWV3Y40-4" target="MpjXvPP9tkOSTZWV3Y40-6" edge="1">
          <mxGeometry x="-0.0003" relative="1" as="geometry">
            <mxPoint x="340" y="100" as="sourcePoint" />
            <mxPoint x="500" y="101" as="targetPoint" />
            <mxPoint as="offset" />
          </mxGeometry>
        </mxCell>
        <mxCell id="MpjXvPP9tkOSTZWV3Y40-14" value="Запрос на импорт&#xa; файла" style="verticalAlign=bottom;endArrow=block;shadow=0;strokeWidth=1;exitX=1.019;exitY=0.218;exitDx=0;exitDy=0;exitPerimeter=0;fillColor=#ffe6cc;strokeColor=#d79b00;" parent="1" source="MpjXvPP9tkOSTZWV3Y40-6" edge="1">
          <mxGeometry relative="1" as="geometry">
            <mxPoint x="490" y="140" as="sourcePoint" />
            <mxPoint x="640" y="140" as="targetPoint" />
          </mxGeometry>
        </mxCell>
        <mxCell id="MpjXvPP9tkOSTZWV3Y40-15" value="&lt;font style=&quot;font-size: 11px&quot;&gt;Извлечение парсера&lt;/font&gt;" style="text;html=1;strokeColor=none;fillColor=none;align=center;verticalAlign=middle;whiteSpace=wrap;rounded=0;" parent="1" vertex="1">
          <mxGeometry x="690" y="220" width="40" height="20" as="geometry" />
        </mxCell>
        <mxCell id="MpjXvPP9tkOSTZWV3Y40-16" value="Запрос на скачивание&#xa; файла по _id" style="verticalAlign=bottom;endArrow=block;shadow=0;strokeWidth=1;exitX=1.141;exitY=0.351;exitDx=0;exitDy=0;exitPerimeter=0;entryX=-0.112;entryY=0.107;entryDx=0;entryDy=0;entryPerimeter=0;" parent="1" source="MpjXvPP9tkOSTZWV3Y40-8" target="MpjXvPP9tkOSTZWV3Y40-11" edge="1">
          <mxGeometry relative="1" as="geometry">
            <mxPoint x="650" y="210" as="sourcePoint" />
            <mxPoint x="780" y="210" as="targetPoint" />
          </mxGeometry>
        </mxCell>
        <mxCell id="MpjXvPP9tkOSTZWV3Y40-17" value="" style="edgeStyle=elbowEdgeStyle;elbow=horizontal;endArrow=classic;html=1;exitX=1.039;exitY=0.003;exitDx=0;exitDy=0;exitPerimeter=0;" parent="1" edge="1">
          <mxGeometry width="50" height="50" relative="1" as="geometry">
            <mxPoint x="650.3899999999999" y="225.1199999999999" as="sourcePoint" />
            <mxPoint x="650" y="254.8800000000001" as="targetPoint" />
            <Array as="points">
              <mxPoint x="680" y="254.87999999999988" />
              <mxPoint x="680" y="223.88" />
            </Array>
          </mxGeometry>
        </mxCell>
        <mxCell id="MpjXvPP9tkOSTZWV3Y40-18" value="Возврат файла" style="verticalAlign=bottom;endArrow=open;dashed=1;endSize=8;shadow=0;strokeWidth=1;exitX=-0.085;exitY=0.227;exitDx=0;exitDy=0;exitPerimeter=0;" parent="1" edge="1">
          <mxGeometry relative="1" as="geometry">
            <mxPoint x="650" y="200" as="targetPoint" />
            <mxPoint x="783.1499999999996" y="200.80999999999995" as="sourcePoint" />
          </mxGeometry>
        </mxCell>
        <mxCell id="MpjXvPP9tkOSTZWV3Y40-19" value="" style="points=[];perimeter=orthogonalPerimeter;rounded=0;shadow=0;strokeWidth=1;" parent="1" vertex="1">
          <mxGeometry x="640" y="220" width="10" height="40" as="geometry" />
        </mxCell>
        <mxCell id="MpjXvPP9tkOSTZWV3Y40-20" value="" style="edgeStyle=elbowEdgeStyle;elbow=horizontal;endArrow=classic;html=1;exitX=1.028;exitY=0.154;exitDx=0;exitDy=0;exitPerimeter=0;" parent="1" source="MpjXvPP9tkOSTZWV3Y40-9" edge="1">
          <mxGeometry width="50" height="50" relative="1" as="geometry">
            <mxPoint x="650.3899999999999" y="270.0000000000002" as="sourcePoint" />
            <mxPoint x="650" y="299.7600000000002" as="targetPoint" />
            <Array as="points">
              <mxPoint x="680" y="299.76" />
              <mxPoint x="680" y="268.7600000000002" />
            </Array>
          </mxGeometry>
        </mxCell>
        <mxCell id="MpjXvPP9tkOSTZWV3Y40-21" value="&lt;font style=&quot;font-size: 11px&quot;&gt;Парсинг данных&lt;/font&gt;" style="text;html=1;strokeColor=none;fillColor=none;align=center;verticalAlign=middle;whiteSpace=wrap;rounded=0;" parent="1" vertex="1">
          <mxGeometry x="690" y="270" width="40" height="20" as="geometry" />
        </mxCell>
        <mxCell id="MpjXvPP9tkOSTZWV3Y40-22" value="Возврат полученных&#xa; данных" style="verticalAlign=bottom;endArrow=open;dashed=1;endSize=8;shadow=0;strokeWidth=1;fillColor=#ffe6cc;strokeColor=#d79b00;" parent="1" edge="1">
          <mxGeometry x="-0.0024" relative="1" as="geometry">
            <mxPoint x="486.8499999999999" y="310" as="targetPoint" />
            <mxPoint x="640" y="310" as="sourcePoint" />
            <mxPoint as="offset" />
          </mxGeometry>
        </mxCell>
        <mxCell id="tsUw14M51PnG1STJnrdp-1" value="amqp-rpc" style="verticalAlign=bottom;endArrow=block;shadow=0;strokeWidth=1;fontSize=11;entryX=-0.033;entryY=0.001;entryDx=0;entryDy=0;entryPerimeter=0;fillColor=#f0a30a;strokeColor=#BD7000;" edge="1" parent="1">
          <mxGeometry relative="1" as="geometry">
            <mxPoint x="20" y="69" as="sourcePoint" />
            <mxPoint x="120.36999999999989" y="69" as="targetPoint" />
          </mxGeometry>
        </mxCell>
        <mxCell id="tsUw14M51PnG1STJnrdp-2" value="websocket" style="verticalAlign=bottom;endArrow=block;shadow=0;strokeWidth=1;fontSize=11;entryX=-0.033;entryY=0.001;entryDx=0;entryDy=0;entryPerimeter=0;fillColor=#dae8fc;strokeColor=#6c8ebf;" edge="1" parent="1">
          <mxGeometry relative="1" as="geometry">
            <mxPoint x="20" y="99" as="sourcePoint" />
            <mxPoint x="120.36999999999989" y="99" as="targetPoint" />
          </mxGeometry>
        </mxCell>
        <mxCell id="tsUw14M51PnG1STJnrdp-3" value="Транспорт" style="text;html=1;strokeColor=none;fillColor=none;align=center;verticalAlign=middle;whiteSpace=wrap;rounded=0;fontSize=13;" vertex="1" parent="1">
          <mxGeometry x="36" y="20" width="40" height="20" as="geometry" />
        </mxCell>
        <mxCell id="tsUw14M51PnG1STJnrdp-4" value="" style="endArrow=classic;html=1;rounded=0;" edge="1" parent="1">
          <mxGeometry width="50" height="50" relative="1" as="geometry">
            <mxPoint x="20" y="130" as="sourcePoint" />
            <mxPoint x="120" y="130" as="targetPoint" />
          </mxGeometry>
        </mxCell>
        <mxCell id="tsUw14M51PnG1STJnrdp-5" value="Прочее (напр., http)" style="edgeLabel;html=1;align=center;verticalAlign=middle;resizable=0;points=[];" vertex="1" connectable="0" parent="tsUw14M51PnG1STJnrdp-4">
          <mxGeometry x="-0.1551" y="2" relative="1" as="geometry">
            <mxPoint y="-8" as="offset" />
          </mxGeometry>
        </mxCell>
      </root>
    </mxGraphModel>
  </diagram>
</mxfile>
